<svg width="213" height="27" viewBox="0 0 213 27" fill="none" xmlns="http://www.w3.org/2000/svg">
<path d="M148.289 13.209H139.936V22H137.311V2.09375H149.643V4.25391H139.936V11.0625H148.289V13.209Z" fill="#F09D51"/>
<path d="M155.139 22H152.609V7.20703H155.139V22ZM152.404 3.2832C152.404 2.87305 152.527 2.52669 152.773 2.24414C153.029 1.96159 153.402 1.82031 153.895 1.82031C154.387 1.82031 154.76 1.96159 155.016 2.24414C155.271 2.52669 155.398 2.87305 155.398 3.2832C155.398 3.69336 155.271 4.03516 155.016 4.30859C154.76 4.58203 154.387 4.71875 153.895 4.71875C153.402 4.71875 153.029 4.58203 152.773 4.30859C152.527 4.03516 152.404 3.69336 152.404 3.2832Z" fill="#F09D51"/>
<path d="M161.592 7.20703L161.674 9.06641C162.804 7.64453 164.281 6.93359 166.104 6.93359C169.23 6.93359 170.807 8.69727 170.834 12.2246V22H168.305V12.2109C168.296 11.1445 168.049 10.3561 167.566 9.8457C167.092 9.33529 166.35 9.08008 165.338 9.08008C164.518 9.08008 163.798 9.29883 163.178 9.73633C162.558 10.1738 162.075 10.748 161.729 11.459V22H159.199V7.20703H161.592Z" fill="#F09D51"/>
<path d="M174.033 14.4805C174.033 12.2109 174.571 10.388 175.646 9.01172C176.722 7.6263 178.13 6.93359 179.871 6.93359C181.603 6.93359 182.975 7.52604 183.986 8.71094V1H186.516V22H184.191L184.068 20.4141C183.057 21.6536 181.648 22.2734 179.844 22.2734C178.13 22.2734 176.731 21.5716 175.646 20.168C174.571 18.7643 174.033 16.9323 174.033 14.6719V14.4805ZM176.562 14.7676C176.562 16.4447 176.909 17.7572 177.602 18.7051C178.294 19.653 179.251 20.127 180.473 20.127C182.077 20.127 183.248 19.4069 183.986 17.9668V11.1719C183.23 9.77734 182.068 9.08008 180.5 9.08008C179.26 9.08008 178.294 9.55859 177.602 10.5156C176.909 11.4727 176.562 12.89 176.562 14.7676Z" fill="#F09D51"/>
<path d="M196.592 22.2734C194.587 22.2734 192.955 21.6172 191.697 20.3047C190.439 18.9831 189.811 17.2194 189.811 15.0137V14.5488C189.811 13.0814 190.089 11.7734 190.645 10.625C191.21 9.46745 191.993 8.5651 192.996 7.91797C194.008 7.26172 195.102 6.93359 196.277 6.93359C198.201 6.93359 199.695 7.56706 200.762 8.83398C201.828 10.1009 202.361 11.9147 202.361 14.2754V15.3281H192.34C192.376 16.7865 192.8 17.9668 193.611 18.8691C194.432 19.7624 195.471 20.209 196.729 20.209C197.622 20.209 198.378 20.0267 198.998 19.6621C199.618 19.2975 200.16 18.8145 200.625 18.2129L202.17 19.416C200.93 21.321 199.071 22.2734 196.592 22.2734ZM196.277 9.01172C195.257 9.01172 194.4 9.38542 193.707 10.1328C193.014 10.8711 192.586 11.9102 192.422 13.25H199.832V13.0586C199.759 11.7734 199.413 10.7799 198.793 10.0781C198.173 9.36719 197.335 9.01172 196.277 9.01172Z" fill="#F09D51"/>
<path d="M212.451 9.47656C212.068 9.41276 211.654 9.38086 211.207 9.38086C209.548 9.38086 208.423 10.0872 207.83 11.5V22H205.301V7.20703H207.762L207.803 8.91602C208.632 7.5944 209.808 6.93359 211.33 6.93359C211.822 6.93359 212.196 6.9974 212.451 7.125V9.47656Z" fill="#F09D51"/>
<path d="M13.3027 15.8047H4.96289L3.08984 21H0.382812L7.98438 1.09375H10.2812L17.8965 21H15.2031L13.3027 15.8047ZM5.75586 13.6445H12.5234L9.13281 4.33398L5.75586 13.6445Z" fill="black"/>
<path d="M32.6758 13.7676C32.6758 16.0189 32.1608 17.8327 31.1309 19.209C30.1009 20.5853 28.7064 21.2734 26.9473 21.2734C25.1517 21.2734 23.7389 20.7038 22.709 19.5645V26.6875H20.1797V6.20703H22.4902L22.6133 7.84766C23.6432 6.57161 25.0742 5.93359 26.9062 5.93359C28.6836 5.93359 30.0872 6.60352 31.1172 7.94336C32.1562 9.2832 32.6758 11.1471 32.6758 13.5352V13.7676ZM30.1465 13.4805C30.1465 11.8125 29.791 10.4954 29.0801 9.5293C28.3691 8.56315 27.3939 8.08008 26.1543 8.08008C24.623 8.08008 23.4746 8.75911 22.709 10.1172V17.1855C23.4655 18.5345 24.623 19.209 26.1816 19.209C27.3939 19.209 28.3555 18.7305 29.0664 17.7734C29.7865 16.8073 30.1465 15.3763 30.1465 13.4805Z" fill="black"/>
<path d="M48.3984 13.7676C48.3984 16.0189 47.8835 17.8327 46.8535 19.209C45.8236 20.5853 44.429 21.2734 42.6699 21.2734C40.8743 21.2734 39.4616 20.7038 38.4316 19.5645V26.6875H35.9023V6.20703H38.2129L38.3359 7.84766C39.3659 6.57161 40.7969 5.93359 42.6289 5.93359C44.4062 5.93359 45.8099 6.60352 46.8398 7.94336C47.8789 9.2832 48.3984 11.1471 48.3984 13.5352V13.7676ZM45.8691 13.4805C45.8691 11.8125 45.5137 10.4954 44.8027 9.5293C44.0918 8.56315 43.1165 8.08008 41.877 8.08008C40.3457 8.08008 39.1973 8.75911 38.4316 10.1172V17.1855C39.1882 18.5345 40.3457 19.209 41.9043 19.209C43.1165 19.209 44.0781 18.7305 44.7891 17.7734C45.5091 16.8073 45.8691 15.3763 45.8691 13.4805Z" fill="black"/>
<path d="M54.373 21H51.8438V0H54.373V21Z" fill="black"/>
<path d="M61.1816 21H58.6523V6.20703H61.1816V21ZM58.4473 2.2832C58.4473 1.87305 58.5703 1.52669 58.8164 1.24414C59.0716 0.961589 59.4453 0.820312 59.9375 0.820312C60.4297 0.820312 60.8034 0.961589 61.0586 1.24414C61.3138 1.52669 61.4414 1.87305 61.4414 2.2832C61.4414 2.69336 61.3138 3.03516 61.0586 3.30859C60.8034 3.58203 60.4297 3.71875 59.9375 3.71875C59.4453 3.71875 59.0716 3.58203 58.8164 3.30859C58.5703 3.03516 58.4473 2.69336 58.4473 2.2832Z" fill="black"/>
<path d="M74.375 21C74.2292 20.7083 74.1107 20.1888 74.0195 19.4414C72.8438 20.6628 71.4401 21.2734 69.8086 21.2734C68.3503 21.2734 67.1517 20.8633 66.2129 20.043C65.2832 19.2135 64.8184 18.1654 64.8184 16.8984C64.8184 15.3581 65.4017 14.1641 66.5684 13.3164C67.7441 12.4596 69.3939 12.0312 71.5176 12.0312H73.9785V10.8691C73.9785 9.98503 73.7142 9.2832 73.1855 8.76367C72.6569 8.23503 71.8776 7.9707 70.8477 7.9707C69.9453 7.9707 69.1888 8.19857 68.5781 8.6543C67.9674 9.11003 67.6621 9.66146 67.6621 10.3086H65.1191C65.1191 9.57031 65.3789 8.85938 65.8984 8.17578C66.4271 7.48307 67.138 6.9362 68.0312 6.53516C68.9336 6.13411 69.9225 5.93359 70.998 5.93359C72.7025 5.93359 74.0378 6.36198 75.0039 7.21875C75.9701 8.06641 76.4714 9.23763 76.5078 10.7324V17.541C76.5078 18.8991 76.681 19.9792 77.0273 20.7812V21H74.375ZM70.1777 19.0723C70.9707 19.0723 71.7227 18.8672 72.4336 18.457C73.1445 18.0469 73.6595 17.5137 73.9785 16.8574V13.8223H71.9961C68.8971 13.8223 67.3477 14.7292 67.3477 16.543C67.3477 17.3359 67.612 17.9557 68.1406 18.4023C68.6693 18.849 69.3483 19.0723 70.1777 19.0723Z" fill="black"/>
<path d="M82.8652 6.20703L82.9473 8.06641C84.0775 6.64453 85.554 5.93359 87.377 5.93359C90.5033 5.93359 92.0801 7.69727 92.1074 11.2246V21H89.5781V11.2109C89.569 10.1445 89.3229 9.35612 88.8398 8.8457C88.3659 8.33529 87.623 8.08008 86.6113 8.08008C85.791 8.08008 85.071 8.29883 84.4512 8.73633C83.8314 9.17383 83.3483 9.74805 83.002 10.459V21H80.4727V6.20703H82.8652Z" fill="black"/>
<path d="M101.855 19.209C102.758 19.209 103.546 18.9355 104.221 18.3887C104.895 17.8418 105.269 17.1582 105.342 16.3379H107.734C107.689 17.1855 107.397 17.9922 106.859 18.7578C106.322 19.5234 105.602 20.1341 104.699 20.5898C103.806 21.0456 102.858 21.2734 101.855 21.2734C99.8411 21.2734 98.237 20.6035 97.043 19.2637C95.8581 17.9147 95.2656 16.0736 95.2656 13.7402V13.3164C95.2656 11.8763 95.5299 10.5957 96.0586 9.47461C96.5872 8.35352 97.3438 7.48307 98.3281 6.86328C99.3216 6.24349 100.493 5.93359 101.842 5.93359C103.501 5.93359 104.877 6.43034 105.971 7.42383C107.074 8.41732 107.661 9.70703 107.734 11.293H105.342C105.269 10.3359 104.904 9.55208 104.248 8.94141C103.601 8.32161 102.799 8.01172 101.842 8.01172C100.557 8.01172 99.5586 8.47656 98.8477 9.40625C98.1458 10.3268 97.7949 11.6621 97.7949 13.4121V13.8906C97.7949 15.5951 98.1458 16.9076 98.8477 17.8281C99.5495 18.7487 100.552 19.209 101.855 19.209Z" fill="black"/>
<path d="M116.717 21.2734C114.712 21.2734 113.08 20.6172 111.822 19.3047C110.564 17.9831 109.936 16.2194 109.936 14.0137V13.5488C109.936 12.0814 110.214 10.7734 110.77 9.625C111.335 8.46745 112.118 7.5651 113.121 6.91797C114.133 6.26172 115.227 5.93359 116.402 5.93359C118.326 5.93359 119.82 6.56706 120.887 7.83398C121.953 9.10091 122.486 10.9147 122.486 13.2754V14.3281H112.465C112.501 15.7865 112.925 16.9668 113.736 17.8691C114.557 18.7624 115.596 19.209 116.854 19.209C117.747 19.209 118.503 19.0267 119.123 18.6621C119.743 18.2975 120.285 17.8145 120.75 17.2129L122.295 18.416C121.055 20.321 119.196 21.2734 116.717 21.2734ZM116.402 8.01172C115.382 8.01172 114.525 8.38542 113.832 9.13281C113.139 9.87109 112.711 10.9102 112.547 12.25H119.957V12.0586C119.884 10.7734 119.538 9.77995 118.918 9.07812C118.298 8.36719 117.46 8.01172 116.402 8.01172Z" fill="black"/>
</svg>
